<?xml version="1.0" encoding="UTF-8" standalone="no"?>
<svg
   xmlns:dc="http://purl.org/dc/elements/1.1/"
   xmlns:cc="http://creativecommons.org/ns#"
   xmlns:rdf="http://www.w3.org/1999/02/22-rdf-syntax-ns#"
   xmlns:svg="http://www.w3.org/2000/svg"
   xmlns="http://www.w3.org/2000/svg"
   xmlns:sodipodi="http://sodipodi.sourceforge.net/DTD/sodipodi-0.dtd"
   xmlns:inkscape="http://www.inkscape.org/namespaces/inkscape"
   inkscape:version="1.0 (4035a4fb49, 2020-05-01)"
   id="svg8"
   version="1.1"
   viewBox="0 0 210 210"
   height="210mm"
   width="210mm">
  <title
     id="title10">NETWORK</title>
  <defs
     id="defs2" />
  <sodipodi:namedview
     inkscape:window-maximized="1"
     inkscape:window-y="-8"
     inkscape:window-x="-8"
     inkscape:window-height="705"
     inkscape:window-width="1366"
     showgrid="true"
     inkscape:document-rotation="0"
     inkscape:current-layer="layer1"
     inkscape:document-units="mm"
     inkscape:cy="560"
     inkscape:cx="400"
     inkscape:zoom="0.35"
     inkscape:pageshadow="2"
     inkscape:pageopacity="0.0"
     borderopacity="1.0"
     bordercolor="#666666"
     pagecolor="#ffffff"
     id="base">
    <inkscape:grid
       id="grid12"
       type="xygrid" />
  </sodipodi:namedview>
  <metadata
     id="metadata5">
    <rdf:RDF>
      <cc:Work
         rdf:about="">
        <dc:format>image/svg+xml</dc:format>
        <dc:type
           rdf:resource="http://purl.org/dc/dcmitype/StillImage" />
        <dc:title>NETWORK</dc:title>
        <cc:license
           rdf:resource="http://creativecommons.org/licenses/by-sa/4.0/" />
        <dc:creator>
          <cc:Agent>
            <dc:title>Sharkbyte</dc:title>
          </cc:Agent>
        </dc:creator>
      </cc:Work>
      <cc:License
         rdf:about="http://creativecommons.org/licenses/by-sa/4.0/">
        <cc:permits
           rdf:resource="http://creativecommons.org/ns#Reproduction" />
        <cc:permits
           rdf:resource="http://creativecommons.org/ns#Distribution" />
        <cc:requires
           rdf:resource="http://creativecommons.org/ns#Notice" />
        <cc:requires
           rdf:resource="http://creativecommons.org/ns#Attribution" />
        <cc:permits
           rdf:resource="http://creativecommons.org/ns#DerivativeWorks" />
        <cc:requires
           rdf:resource="http://creativecommons.org/ns#ShareAlike" />
      </cc:License>
    </rdf:RDF>
  </metadata>
  <g
     id="layer1"
     inkscape:groupmode="layer"
     inkscape:label="Ebene 1">
    <path
       id="path839"
       d="m 31.75,158.75 74.08333,-52.91667 52.91667,42.33333 21.16666,21.16667 21.16667,-31.75 V 84.666666 l -31.75,-52.916666 -63.5,74.08333 H 10.583333 L 95.249999,63.499999 V 21.166666 H 137.58333 95.249999 L 74.083332,10.583333"
       style="fill:none;stroke:#3432bd;stroke-width:0.965;stroke-linecap:butt;stroke-linejoin:miter;stroke-miterlimit:4;stroke-dasharray:none;stroke-opacity:1" />
    <circle
       r="95.25"
       cy="105.83333"
       cx="105.83333"
       id="path14"
       style="fill:none;fill-opacity:0.989091;stroke:#2500fc;stroke-width:11.865;stroke-miterlimit:4;stroke-dasharray:none;stroke-opacity:1" />
    <g
       style="font-style:normal;font-weight:normal;font-size:26.7214px;line-height:1.25;font-family:sans-serif;letter-spacing:0px;word-spacing:0px;fill:#000000;fill-opacity:1;stroke:none;stroke-width:0.668036"
       id="text845"
       transform="scale(1.0062913,0.99374804)"
       aria-label="NETWORK">
      <path
         id="path847"
         style="stroke-width:0.668036"
         d="m 49.654267,191.45522 h -3.196652 l -9.211576,-17.37935 v 17.37935 H 34.83224 V 172.0274 h 4.005601 l 8.402627,15.86583 V 172.0274 h 2.413799 z" />
      <path
         id="path849"
         style="stroke-width:0.668036"
         d="M 67.620754,191.45522 H 54.8211 V 172.0274 h 12.799654 v 2.29637 H 57.404516 v 5.32341 h 10.216238 v 2.29637 H 57.404516 v 7.2153 h 10.216238 z" />
      <path
         id="path851"
         style="stroke-width:0.668036"
         d="m 85.587242,174.32377 h -6.941301 v 17.13145 h -2.583417 v -17.13145 h -6.941301 v -2.29637 h 16.466019 z" />
      <path
         id="path853"
         style="stroke-width:0.668036"
         d="m 110.83427,172.0274 -5.04941,19.42782 h -2.9096 l -4.083888,-16.12679 -3.992553,16.12679 H 91.954452 L 86.813714,172.0274 h 2.648654 l 4.083886,16.15288 4.018648,-16.15288 h 2.622558 l 4.05779,16.30945 4.05779,-16.30945 z" />
      <path
         id="path855"
         style="stroke-width:0.668036"
         d="m 129.1139,174.25853 q 1.18732,1.30476 1.81361,3.19666 0.63933,1.89189 0.63933,4.29264 0,2.40075 -0.65238,4.3057 -0.63933,1.89189 -1.80056,3.15751 -1.20038,1.3178 -2.84437,1.98322 -1.63095,0.66543 -3.7316,0.66543 -2.04847,0 -3.7316,-0.67847 -1.67009,-0.67848 -2.84437,-1.97018 -1.17428,-1.29171 -1.81361,-3.17056 -0.62629,-1.87885 -0.62629,-4.29265 0,-2.37465 0.62629,-4.2535 0.62628,-1.8919 1.82666,-3.2358 1.14818,-1.27866 2.84436,-1.95713 1.70923,-0.67847 3.71856,-0.67847 2.08761,0 3.74465,0.69152 1.67008,0.67847 2.83132,1.94408 z m -0.23486,7.4893 q 0,-3.78379 -1.69618,-5.83226 -1.69618,-2.06151 -4.63189,-2.06151 -2.96179,0 -4.65797,2.06151 -1.68314,2.04847 -1.68314,5.83226 0,3.82294 1.72228,5.85836 1.72228,2.02237 4.61883,2.02237 2.89656,0 4.60579,-2.02237 1.72228,-2.03542 1.72228,-5.85836 z" />
      <path
         id="path857"
         style="stroke-width:0.668036"
         d="m 151.73836,191.45522 h -3.35322 l -6.49769,-7.72416 h -3.64027 v 7.72416 h -2.58341 V 172.0274 h 5.44083 q 1.76142,0 2.9357,0.23486 1.17428,0.22181 2.1137,0.80895 1.05686,0.66542 1.644,1.68313 0.60018,1.00466 0.60018,2.55732 0,2.10066 -1.05685,3.52284 -1.05685,1.40914 -2.9096,2.12676 z m -6.04102,-13.96089 q 0,-0.83505 -0.30009,-1.47438 -0.28705,-0.65237 -0.96552,-1.09599 -0.56105,-0.37838 -1.33085,-0.5219 -0.76981,-0.15657 -1.81361,-0.15657 h -3.04009 v 7.33272 h 2.60952 q 1.22647,0 2.1398,-0.20876 0.91332,-0.22181 1.55266,-0.80895 0.58714,-0.54799 0.86113,-1.25256 0.28705,-0.71762 0.28705,-1.81361 z" />
      <path
         id="path859"
         style="stroke-width:0.668036"
         d="m 169.86142,191.45522 h -3.35322 l -7.68501,-8.65054 -1.93104,2.06152 v 6.58902 h -2.58342 V 172.0274 h 2.58342 v 10.13795 l 9.43338,-10.13795 h 3.13142 l -8.67663,9.13329 z" />
    </g>
  </g>
</svg>
